<svg width="13" height="9" viewBox="0 0 13 9" fill="none" xmlns="http://www.w3.org/2000/svg">
    <mask id="path-1-inside-1" fill="white">
        <path d="M0 0V0.479512V8.52049V9H13V8.52049V0.479512V0H0ZM7.93542 4.61805L6.75545 5.76335C6.61202 5.89207 6.38755 5.89186 6.25018 5.76879L5.06437 4.61805L5.07477 4.60821L0.790183 0.418605H12.2126L7.92502 4.60842L7.93542 4.61805ZM4.44687 4.61156L0.433333 8.34174V0.716442L4.44687 4.61156ZM4.75237 4.90814L5.94902 6.06956C6.10263 6.20791 6.2998 6.2774 6.49783 6.2774C6.69782 6.2774 6.89867 6.20644 7.05705 6.06391L8.24785 4.90814L12.1992 8.5814H0.798633L4.75237 4.90814ZM8.55335 4.61177L12.5667 0.716233V8.34174L8.55335 4.61177Z"/>
    </mask>
    <path d="M0 0V0.479512V8.52049V9H13V8.52049V0.479512V0H0ZM7.93542 4.61805L6.75545 5.76335C6.61202 5.89207 6.38755 5.89186 6.25018 5.76879L5.06437 4.61805L5.07477 4.60821L0.790183 0.418605H12.2126L7.92502 4.60842L7.93542 4.61805ZM4.44687 4.61156L0.433333 8.34174V0.716442L4.44687 4.61156ZM4.75237 4.90814L5.94902 6.06956C6.10263 6.20791 6.2998 6.2774 6.49783 6.2774C6.69782 6.2774 6.89867 6.20644 7.05705 6.06391L8.24785 4.90814L12.1992 8.5814H0.798633L4.75237 4.90814ZM8.55335 4.61177L12.5667 0.716233V8.34174L8.55335 4.61177Z" fill="black"/>
    <path d="M0 0V-2H-2V0H0ZM0 9H-2V11H0V9ZM13 9V11H15V9H13ZM13 0H15V-2H13V0ZM7.93542 4.61805L9.32839 6.05318L10.8424 4.58369L9.29409 3.15039L7.93542 4.61805ZM6.75545 5.76335L8.09126 7.25184L8.12037 7.22572L8.14843 7.19849L6.75545 5.76335ZM6.25018 5.76879L4.85735 7.20407L4.88594 7.23181L4.91561 7.2584L6.25018 5.76879ZM5.06437 4.61805L3.69003 3.16505L2.17344 4.59953L3.67154 6.05333L5.06437 4.61805ZM5.07477 4.60821L6.4491 6.06121L7.95994 4.63217L6.47304 3.17824L5.07477 4.60821ZM0.790183 0.418605V-1.5814H-4.11582L-0.608092 1.84858L0.790183 0.418605ZM12.2126 0.418605L13.6104 1.84904L17.1209 -1.5814H12.2126V0.418605ZM7.92502 4.60842L6.52721 3.17798L5.02329 4.6476L6.56634 6.07607L7.92502 4.60842ZM4.44687 4.61156L5.80842 6.07654L7.35093 4.64293L5.83975 3.17633L4.44687 4.61156ZM0.433333 8.34174H-1.56667V12.931L1.79489 9.80672L0.433333 8.34174ZM0.433333 0.716442L1.82622 -0.718786L-1.56667 -4.01156V0.716442H0.433333ZM4.75237 4.90814L6.1453 3.47296L4.78245 2.15024L3.39108 3.44291L4.75237 4.90814ZM5.94902 6.06956L4.55609 7.50474L4.58286 7.53073L4.61059 7.5557L5.94902 6.06956ZM7.05705 6.06391L8.39493 7.55054L8.42295 7.52533L8.45 7.49907L7.05705 6.06391ZM8.24785 4.90814L9.60958 3.44332L8.21816 2.14983L6.85491 3.47297L8.24785 4.90814ZM12.1992 8.5814V10.5814H17.2881L13.5609 7.11657L12.1992 8.5814ZM0.798633 8.5814L-0.562653 7.11617L-4.29248 10.5814H0.798633V8.5814ZM8.55335 4.61177L7.16035 3.17665L5.64941 4.64325L7.1918 6.07675L8.55335 4.61177ZM12.5667 0.716233H14.5667V-4.0123L11.1737 -0.718883L12.5667 0.716233ZM12.5667 8.34174L11.2051 9.80673L14.5667 12.931V8.34174H12.5667ZM-2 0V0.479512H2V0H-2ZM-2 0.479512V8.52049H2V0.479512H-2ZM-2 8.52049V9H2V8.52049H-2ZM0 11H13V7H0V11ZM15 9V8.52049H11V9H15ZM15 8.52049V0.479512H11V8.52049H15ZM15 0.479512V0H11V0.479512H15ZM13 -2H0V2H13V-2ZM6.54244 3.18291L5.36247 4.32821L8.14843 7.19849L9.32839 6.05318L6.54244 3.18291ZM5.41964 4.27486C6.01762 3.73821 6.94411 3.70522 7.58475 4.27919L4.91561 7.2584C5.83099 8.0785 7.20641 8.04593 8.09126 7.25184L5.41964 4.27486ZM7.64301 4.33351L6.4572 3.18277L3.67154 6.05333L4.85735 7.20407L7.64301 4.33351ZM6.4387 6.07105L6.4491 6.06121L3.70043 3.15521L3.69003 3.16505L6.4387 6.07105ZM6.47304 3.17824L2.18846 -1.01137L-0.608092 1.84858L3.67649 6.03818L6.47304 3.17824ZM0.790183 2.4186H12.2126V-1.5814H0.790183V2.4186ZM10.8148 -1.01183L6.52721 3.17798L9.32282 6.03885L13.6104 1.84904L10.8148 -1.01183ZM6.56634 6.07607L6.57674 6.0857L9.29409 3.15039L9.28369 3.14076L6.56634 6.07607ZM3.08531 3.14658L-0.928222 6.87676L1.79489 9.80672L5.80842 6.07654L3.08531 3.14658ZM2.43333 8.34174V0.716442H-1.56667V8.34174H2.43333ZM-0.959549 2.15167L3.05398 6.04679L5.83975 3.17633L1.82622 -0.718786L-0.959549 2.15167ZM3.35944 6.34332L4.55609 7.50474L7.34195 4.63438L6.1453 3.47296L3.35944 6.34332ZM4.61059 7.5557C5.15381 8.04492 5.83633 8.2774 6.49783 8.2774V4.2774C6.76327 4.2774 7.05146 4.37089 7.28745 4.58342L4.61059 7.5557ZM6.49783 8.2774C7.16794 8.2774 7.85189 8.03924 8.39493 7.55054L5.71917 4.57727C5.94545 4.37364 6.2277 4.2774 6.49783 4.2774V8.2774ZM8.45 7.49907L9.64079 6.34331L6.85491 3.47297L5.6641 4.62874L8.45 7.49907ZM6.88612 6.37296L10.8375 10.0462L13.5609 7.11657L9.60958 3.44332L6.88612 6.37296ZM12.1992 6.5814H0.798633V10.5814H12.1992V6.5814ZM2.15992 10.0466L6.11365 6.37337L3.39108 3.44291L-0.562653 7.11617L2.15992 10.0466ZM9.94635 6.04688L13.9597 2.15135L11.1737 -0.718883L7.16035 3.17665L9.94635 6.04688ZM10.5667 0.716233V8.34174H14.5667V0.716233H10.5667ZM13.9282 6.87676L9.9149 3.14679L7.1918 6.07675L11.2051 9.80673L13.9282 6.87676Z" fill="#B40B0B" mask="url(#path-1-inside-1)"/>
</svg>
