<svg width="30" height="32" viewBox="0 0 30 32" fill="none" xmlns="http://www.w3.org/2000/svg">
  <mask id="path-1-inside-1" fill="white">
    <path d="M29.8361 30.1608L21.0954 21.0707C23.3248 18.8348 24.706 15.7524 24.706 12.353C24.706 5.54121 19.1648 0 12.353 0C5.54121 0 0 5.54121 0 12.353C0 19.1648 5.54121 24.706 12.353 24.706C15.343 24.706 18.0872 23.6372 20.226 21.8637L28.9878 30.9761C29.1031 31.0967 29.2572 31.1567 29.4119 31.1567C29.559 31.1567 29.7055 31.102 29.8196 30.9925C30.0537 30.7672 30.0608 30.3949 29.8361 30.1608ZM12.353 23.5296C6.19004 23.5296 1.17648 18.516 1.17648 12.353C1.17648 6.19004 6.19004 1.17648 12.353 1.17648C18.516 1.17648 23.5296 6.19004 23.5296 12.353C23.5296 18.516 18.5154 23.5296 12.353 23.5296Z"/>
  </mask>
  <path d="M29.8361 30.1608L21.0954 21.0707C23.3248 18.8348 24.706 15.7524 24.706 12.353C24.706 5.54121 19.1648 0 12.353 0C5.54121 0 0 5.54121 0 12.353C0 19.1648 5.54121 24.706 12.353 24.706C15.343 24.706 18.0872 23.6372 20.226 21.8637L28.9878 30.9761C29.1031 31.0967 29.2572 31.1567 29.4119 31.1567C29.559 31.1567 29.7055 31.102 29.8196 30.9925C30.0537 30.7672 30.0608 30.3949 29.8361 30.1608ZM12.353 23.5296C6.19004 23.5296 1.17648 18.516 1.17648 12.353C1.17648 6.19004 6.19004 1.17648 12.353 1.17648C18.516 1.17648 23.5296 6.19004 23.5296 12.353C23.5296 18.516 18.5154 23.5296 12.353 23.5296Z" fill="black"/>
  <path d="M29.8361 30.1608L31.279 28.7759L31.2777 28.7745L29.8361 30.1608ZM21.0954 21.0707L19.6792 19.6586L18.2964 21.0453L19.6538 22.457L21.0954 21.0707ZM20.226 21.8637L21.6677 20.4775L20.3798 19.138L18.9494 20.3241L20.226 21.8637ZM28.9878 30.9761L30.4334 29.5939L30.4295 29.5899L28.9878 30.9761ZM29.8196 30.9925L31.2037 32.4362L31.2064 32.4337L29.8196 30.9925ZM31.2777 28.7745L22.5371 19.6845L19.6538 22.457L28.3944 31.547L31.2777 28.7745ZM22.5117 22.4829C25.098 19.8891 26.706 16.3054 26.706 12.353H22.706C22.706 15.1995 21.5517 17.7806 19.6792 19.6586L22.5117 22.4829ZM26.706 12.353C26.706 4.43664 20.2694 -2 12.353 -2V2C18.0603 2 22.706 6.64578 22.706 12.353H26.706ZM12.353 -2C4.43664 -2 -2 4.43664 -2 12.353H2C2 6.64578 6.64578 2 12.353 2V-2ZM-2 12.353C-2 20.2694 4.43664 26.706 12.353 26.706V22.706C6.64578 22.706 2 18.0603 2 12.353H-2ZM12.353 26.706C15.8284 26.706 19.0199 25.4619 21.5026 23.4032L18.9494 20.3241C17.1544 21.8125 14.8577 22.706 12.353 22.706V26.706ZM18.7843 23.2499L27.5461 32.3623L30.4295 29.5899L21.6677 20.4775L18.7843 23.2499ZM27.5422 32.3582C28.0539 32.8934 28.7395 33.1567 29.4119 33.1567V29.1567C29.775 29.1567 30.1523 29.2999 30.4334 29.5939L27.5422 32.3582ZM29.4119 33.1567C30.0573 33.1567 30.7047 32.9146 31.2037 32.4362L28.4355 29.5489C28.7062 29.2893 29.0607 29.1567 29.4119 29.1567V33.1567ZM31.2064 32.4337C32.2365 31.4423 32.267 29.8053 31.279 28.7759L28.3931 31.5457C27.8545 30.9845 27.8709 30.0922 28.4328 29.5514L31.2064 32.4337ZM12.353 21.5296C7.29461 21.5296 3.17648 17.4114 3.17648 12.353H-0.823522C-0.823522 19.6206 5.08547 25.5296 12.353 25.5296V21.5296ZM3.17648 12.353C3.17648 7.29461 7.29461 3.17648 12.353 3.17648V-0.823522C5.08547 -0.823522 -0.823522 5.08547 -0.823522 12.353H3.17648ZM12.353 3.17648C17.4114 3.17648 21.5296 7.29461 21.5296 12.353H25.5296C25.5296 5.08547 19.6206 -0.823522 12.353 -0.823522V3.17648ZM21.5296 12.353C21.5296 17.4114 17.4109 21.5296 12.353 21.5296V25.5296C19.6199 25.5296 25.5296 19.6206 25.5296 12.353H21.5296Z" fill="#B40B0B" mask="url(#path-1-inside-1)"/>
</svg>
