<svg width="476" height="142" viewBox="0 0 476 142" fill="none" xmlns="http://www.w3.org/2000/svg">
<path opacity="0.6" d="M36.2622 47.349L35.3504 46.9383L35.0251 47.6606L35.6538 48.1426L36.2622 47.349ZM40.2231 38.5549L40.8148 37.7488L39.8187 37.0176L39.3113 38.1442L40.2231 38.5549ZM55.6346 31.9233L55.4033 32.8963L55.4095 32.8977L55.6346 31.9233ZM46.2004 29.1842L46.5498 28.2472L46.5498 28.2472L46.2004 29.1842ZM39.899 24.7872L39.1439 25.4428L39.1439 25.4428L39.899 24.7872ZM39.647 8.74886L40.4793 9.3032L40.4793 9.3032L39.647 8.74886ZM46.8126 3.09039L46.4125 2.17389L46.4125 2.17389L46.8126 3.09039ZM67.9493 2.15332L67.7066 3.12341L67.7066 3.12341L67.9493 2.15332ZM76.0151 5.46911L76.9416 5.84539L77.2578 5.06693L76.5455 4.62133L76.0151 5.46911ZM72.4143 14.3352L71.9207 15.2049L72.912 15.7675L73.3408 14.7115L72.4143 14.3352ZM51.2056 11.9565L51.7665 12.7844L51.7665 12.7844L51.2056 11.9565ZM59.8115 22.4805L60.0428 21.5077L60.035 21.5058L60.0273 21.5041L59.8115 22.4805ZM69.2456 25.2197L68.8962 26.1567L68.8962 26.1567L69.2456 25.2197ZM68.5254 51.0973L68.923 52.0148L68.923 52.0148L68.5254 51.0973ZM114.276 50.4487L114.871 51.2526L115.481 50.8013L115.211 50.0923L114.276 50.4487ZM94.4358 49.3674L93.7531 50.0982L93.7531 50.0982L94.4358 49.3674ZM90.655 23.0574H91.655V22.0574H90.655V23.0574ZM84.6776 23.0574H83.6776V24.0574H84.6776V23.0574ZM84.6776 14.4075V13.4075H83.6776V14.4075H84.6776ZM90.655 14.4075V15.4075H91.655V14.4075H90.655ZM90.655 4.96469V3.96469H89.655V4.96469H90.655ZM101.889 4.96469H102.889V3.96469H101.889V4.96469ZM101.889 14.4075H100.889V15.4075H101.889V14.4075ZM111.54 14.4075H112.54V13.4075H111.54V14.4075ZM111.54 23.0574V24.0574H112.54V23.0574H111.54ZM101.889 23.0574V22.0574H100.889V23.0574H101.889ZM111.252 42.5196L112.186 42.1632L111.707 40.9071L110.642 41.7273L111.252 42.5196ZM153.978 17.2547L154.642 16.5073L154.642 16.5073L153.978 17.2547ZM158.803 52.3228V53.3228H159.803V52.3228H158.803ZM148.288 52.3228H147.288V53.3228H148.288V52.3228ZM148.288 47.4933H149.288V43.8096L147.426 46.9876L148.288 47.4933ZM126.071 32.6443L126.677 33.4398L126.677 33.4398L126.071 32.6443ZM147.568 29.5448V30.5448H148.568V29.5448H147.568ZM127.476 25.5082L126.586 25.9648L127.143 27.0493L128.098 26.2914L127.476 25.5082ZM123.443 17.6512L122.867 16.8339L122.156 17.3347L122.553 18.1078L123.443 17.6512ZM131.041 14.1912L131.307 15.155L131.307 15.155L131.041 14.1912ZM144.4 43.997L143.887 43.1385L143.887 43.1385L144.4 43.997ZM147.568 40.0685L148.509 40.4079L148.568 40.2434V40.0685H147.568ZM147.568 36.104H148.568V35.104H147.568V36.104ZM134.641 44.0691L134.044 44.8709L134.044 44.8709L134.641 44.0691ZM189.034 14.4075L188.646 13.486L188.646 13.486L189.034 14.4075ZM196.92 12.9658H197.92V11.9658H196.92V12.9658ZM196.92 23.3457L196.843 24.3427L197.92 24.4256V23.3457H196.92ZM184.101 52.3228V53.3228H185.101V52.3228H184.101ZM172.867 52.3228H171.867V53.3228H172.867V52.3228ZM172.867 13.5425V12.5425H171.867V13.5425H172.867ZM183.597 13.5425H184.597V12.5425H183.597V13.5425ZM183.597 18.6603H182.597V21.7702L184.409 19.2432L183.597 18.6603ZM233.885 50.4487L234.48 51.2526L235.09 50.8013L234.819 50.0923L233.885 50.4487ZM214.044 49.3674L213.362 50.0982L213.362 50.0982L214.044 49.3674ZM210.263 23.0574H211.263V22.0574H210.263V23.0574ZM204.286 23.0574H203.286V24.0574H204.286V23.0574ZM204.286 14.4075V13.4075H203.286V14.4075H204.286ZM210.263 14.4075V15.4075H211.263V14.4075H210.263ZM210.263 4.96469V3.96469H209.263V4.96469H210.263ZM221.498 4.96469H222.498V3.96469H221.498V4.96469ZM221.498 14.4075H220.498V15.4075H221.498V14.4075ZM231.148 14.4075H232.148V13.4075H231.148V14.4075ZM231.148 23.0574V24.0574H232.148V23.0574H231.148ZM221.498 23.0574V22.0574H220.498V23.0574H221.498ZM230.86 42.5196L231.794 42.1632L231.315 40.9071L230.25 41.7273L230.86 42.5196ZM306.878 13.5425L307.799 13.9338L308.39 12.5425H306.878V13.5425ZM289.378 54.7015L288.458 54.3102L288.453 54.3211L288.449 54.3321L289.378 54.7015ZM267.341 65.9464L267.039 66.8995L267.039 66.8995L267.341 65.9464ZM262.516 63.3514L261.627 62.8949L261.272 63.5855L261.853 64.1001L262.516 63.3514ZM266.621 55.3503L267.286 54.6032L266.321 53.7447L265.732 54.8938L266.621 55.3503ZM279.296 52.9715L280.21 53.3774L280.218 53.3601L280.225 53.3426L279.296 52.9715ZM279.44 52.6111L280.369 52.9822L280.523 52.5973L280.359 52.2165L279.44 52.6111ZM262.66 13.5425V12.5425H261.143L261.742 13.9371L262.66 13.5425ZM274.255 13.5425L275.179 13.1605L274.924 12.5425H274.255V13.5425ZM285.129 39.8525L284.205 40.2345L285.126 42.4631L286.053 40.2367L285.129 39.8525ZM296.076 13.5425V12.5425H295.409L295.153 13.1583L296.076 13.5425ZM314.172 43.2404L315.029 42.7243L314.172 43.2404ZM314.172 22.6249L315.029 23.141L314.172 22.6249ZM343.699 15.5247L344.168 14.6413L344.168 14.6413L343.699 15.5247ZM343.699 50.3405L344.168 51.224L344.168 51.224L343.699 50.3405ZM339.846 40.7536L340.571 41.4422L340.571 41.4422L339.846 40.7536ZM339.846 25.1117L340.571 24.4231L340.571 24.4231L339.846 25.1117ZM325.623 25.1117L326.344 25.805L326.344 25.805L325.623 25.1117ZM325.623 40.7536L326.344 40.0603L326.344 40.0603L325.623 40.7536ZM404.429 13.5425H405.429V12.5425H404.429V13.5425ZM404.429 52.3228V53.3228H405.429V52.3228H404.429ZM393.771 52.3228H392.771V53.3228H393.771V52.3228ZM393.771 47.7095H394.771V45.0705L393.022 47.0468L393.771 47.7095ZM369.645 48.5024L368.944 49.2149L368.944 49.2149L369.645 48.5024ZM365.18 13.5425V12.5425H364.18V13.5425H365.18ZM376.415 13.5425H377.415V12.5425H376.415V13.5425ZM393.195 13.5425V12.5425H392.195V13.5425H393.195ZM434.949 14.4075L434.56 13.486L434.56 13.486L434.949 14.4075ZM442.834 12.9658H443.834V11.9658H442.834V12.9658ZM442.834 23.3457L442.758 24.3427L443.834 24.4256V23.3457H442.834ZM430.016 52.3228V53.3228H431.016V52.3228H430.016ZM418.781 52.3228H417.781V53.3228H418.781V52.3228ZM418.781 13.5425V12.5425H417.781V13.5425H418.781ZM429.511 13.5425H430.511V12.5425H429.511V13.5425ZM429.511 18.6603H428.511V21.7702L430.324 19.2432L429.511 18.6603ZM17.9238 102.508H16.9238V103.508H17.9238V102.508ZM27.862 102.508H28.862V101.508H27.862V102.508ZM27.862 111.158V112.158H28.862V111.158H27.862ZM18.2119 111.158V110.158H17.2119V111.158H18.2119ZM18.2119 140.424V141.424H19.2119V140.424H18.2119ZM6.97734 140.424H5.97734V141.424H6.97734V140.424ZM6.97734 111.158H7.97734V110.158H6.97734V111.158ZM1 111.158H0V112.158H1V111.158ZM1 102.508V101.508H0V102.508H1ZM6.97734 102.508V103.508H7.97734V102.508H6.97734ZM10.9022 90.2543L11.6064 90.9643L11.6064 90.9643L10.9022 90.2543ZM26.7458 86.9024L26.514 87.8752L26.514 87.8752L26.7458 86.9024ZM30.5266 88.4522L31.4668 88.793L31.734 88.0557L31.0817 87.6204L30.5266 88.4522ZM27.574 96.5975L26.9981 97.4151L28.0681 98.1687L28.5141 96.9383L27.574 96.5975ZM76.4215 101.643H77.4215V100.643H76.4215V101.643ZM76.4215 140.423V141.423H77.4215V140.423H76.4215ZM65.7631 140.423H64.7631V141.423H65.7631V140.423ZM65.7631 135.81H66.7631V133.171L65.0142 135.147L65.7631 135.81ZM41.6377 136.603L40.936 137.316L40.936 137.316L41.6377 136.603ZM37.1727 101.643V100.643H36.1727V101.643H37.1727ZM48.4072 101.643H49.4072V100.643H48.4072V101.643ZM65.187 101.643V100.643H64.187V101.643H65.187ZM115.763 138.549L116.358 139.353L116.968 138.902L116.697 138.193L115.763 138.549ZM95.9224 137.468L95.2397 138.199L95.2397 138.199L95.9224 137.468ZM92.1415 111.158H93.1415V110.158H92.1415V111.158ZM86.1642 111.158H85.1642V112.158H86.1642V111.158ZM86.1642 102.508V101.508H85.1642V102.508H86.1642ZM92.1415 102.508V103.508H93.1415V102.508H92.1415ZM92.1415 93.0654V92.0654H91.1415V93.0654H92.1415ZM103.376 93.0654H104.376V92.0654H103.376V93.0654ZM103.376 102.508H102.376V103.508H103.376V102.508ZM113.026 102.508H114.026V101.508H113.026V102.508ZM113.026 111.158V112.158H114.026V111.158H113.026ZM103.376 111.158V110.158H102.376V111.158H103.376ZM112.738 130.62L113.672 130.264L113.193 129.008L112.128 129.828L112.738 130.62ZM165.043 101.643H166.043V100.643H165.043V101.643ZM165.043 140.423V141.423H166.043V140.423H165.043ZM154.384 140.423H153.384V141.423H154.384V140.423ZM154.384 135.81H155.384V133.171L153.635 135.147L154.384 135.81ZM130.259 136.603L129.557 137.316L129.557 137.316L130.259 136.603ZM125.794 101.643V100.643H124.794V101.643H125.794ZM137.028 101.643H138.028V100.643H137.028V101.643ZM153.808 101.643V100.643H152.808V101.643H153.808ZM195.562 102.508L195.174 101.587L195.174 101.587L195.562 102.508ZM203.448 101.066H204.448V100.066H203.448V101.066ZM203.448 111.446L203.371 112.443L204.448 112.526V111.446H203.448ZM190.629 140.423V141.423H191.629V140.423H190.629ZM179.394 140.423H178.394V141.423H179.394V140.423ZM179.394 101.643V100.643H178.394V101.643H179.394ZM190.125 101.643H191.125V100.643H190.125V101.643ZM190.125 106.761H189.125V109.871L190.937 107.344L190.125 106.761ZM251.431 124.205V125.205H252.357L252.428 124.281L251.431 124.205ZM222.12 124.205V123.205H220.877L221.144 124.42L222.12 124.205ZM242.933 128.241L243.669 127.564L242.975 126.811L242.239 127.522L242.933 128.241ZM248.91 134.729L249.664 135.386L250.254 134.711L249.646 134.051L248.91 134.729ZM213.551 131.341L214.407 130.825L213.551 131.341ZM213.515 110.761L214.376 111.27L213.515 110.761ZM241.781 103.517L241.311 104.4L241.311 104.4L241.781 103.517ZM249.018 110.545L249.886 110.047L249.886 110.047L249.018 110.545ZM225.145 111.735L225.786 112.503L225.786 112.503L225.145 111.735ZM221.976 117.645L220.988 117.494L220.811 118.645H221.976V117.645ZM241.061 117.645V118.645H242.23L242.049 117.491L241.061 117.645ZM237.892 111.771L238.539 111.008L238.539 111.008L237.892 111.771ZM322.516 105.391L321.817 106.107L321.817 106.107L322.516 105.391ZM326.945 140.423V141.423H327.945V140.423H326.945ZM315.711 140.423H314.711V141.423H315.711V140.423ZM298.571 140.423V141.423H299.571V140.423H298.571ZM287.336 140.423H286.336V141.423H287.336V140.423ZM287.336 101.643V100.643H286.336V101.643H287.336ZM298.067 101.643H299.067V100.643H298.067V101.643ZM298.067 106.184H297.067V108.767L298.806 106.858L298.067 106.184ZM303.612 102.4L303.985 103.328L303.985 103.328L303.612 102.4ZM341.297 131.341L342.153 130.825L341.297 131.341ZM341.297 110.725L342.153 111.242L341.297 110.725ZM370.823 103.625L371.292 102.742L371.292 102.742L370.823 103.625ZM370.823 138.441L371.292 139.325L371.292 139.325L370.823 138.441ZM366.971 128.854L367.696 129.543L367.696 129.543L366.971 128.854ZM366.971 113.212L367.696 112.524L367.696 112.524L366.971 113.212ZM352.747 113.212L353.468 113.906L353.468 113.906L352.747 113.212ZM352.747 128.854L353.468 128.161L353.468 128.161L352.747 128.854ZM453.663 101.643L454.603 101.984L455.088 100.643H453.663V101.643ZM439.619 140.423V141.423H440.321L440.56 140.764L439.619 140.423ZM428.817 140.423L427.877 140.764L428.115 141.423H428.817V140.423ZM420.103 116.348L421.043 116.008L420.118 113.452L419.166 115.998L420.103 116.348ZM411.101 140.423V141.423H411.795L412.038 140.774L411.101 140.423ZM400.299 140.423L399.358 140.762L399.596 141.423H400.299V140.423ZM386.328 101.643V100.643H384.904L385.387 101.982L386.328 101.643ZM396.914 101.643L397.858 101.314L397.624 100.643H396.914V101.643ZM406.06 127.881L405.116 128.21L406.042 130.867L407 128.222L406.06 127.881ZM415.566 101.643V100.643H414.865L414.626 101.302L415.566 101.643ZM425.072 101.643L426.016 101.312L425.781 100.643H425.072V101.643ZM434.29 127.881L433.347 128.213L434.279 130.867L435.231 128.219L434.29 127.881ZM443.724 101.643V100.643H443.021L442.783 101.305L443.724 101.643ZM461.389 89.9658V88.9658H460.319L460.391 90.0334L461.389 89.9658ZM474.784 89.9658L475.782 90.0334L475.854 88.9658H474.784V89.9658ZM472.551 122.907V123.907H473.486L473.549 122.975L472.551 122.907ZM463.621 122.907L462.624 122.975L462.687 123.907H463.621V122.907ZM463.117 129.863L463.804 130.59L463.804 130.59L463.117 129.863ZM473.056 129.863L472.369 130.59L472.369 130.59L473.056 129.863ZM45.5073 50.6055C41.8652 49.5472 39 48.1879 36.8706 46.5554L35.6538 48.1426C38.0374 49.97 41.1496 51.4219 44.9492 52.5261L45.5073 50.6055ZM37.174 47.7596L41.1349 38.9656L39.3113 38.1442L35.3504 46.9383L37.174 47.7596ZM39.6314 39.3611C41.8913 41.0199 44.5595 42.3383 47.6216 43.3269L48.2361 41.4237C45.3447 40.4901 42.8758 39.2616 40.8148 37.7488L39.6314 39.3611ZM47.6216 43.3269C50.6924 44.3184 53.7726 44.8169 56.8588 44.8169V42.8169C53.9917 42.8169 51.1186 42.3543 48.2361 41.4237L47.6216 43.3269ZM56.8588 44.8169C60.2325 44.8169 62.909 44.3223 64.7325 43.1885L63.6764 41.49C62.3312 42.3265 60.1106 42.8169 56.8588 42.8169V44.8169ZM64.7325 43.1885C66.5611 42.0515 67.581 40.4445 67.581 38.4108H65.581C65.581 39.6448 65.0165 40.6568 63.6764 41.49L64.7325 43.1885ZM67.581 38.4108C67.581 36.9083 66.9781 35.6345 65.823 34.6562L64.5304 36.1824C65.2478 36.79 65.581 37.5105 65.581 38.4108H67.581ZM65.823 34.6562C64.7667 33.7616 63.4443 33.0698 61.8877 32.559L61.2641 34.4593C62.6361 34.9096 63.7142 35.4912 64.5304 36.1824L65.823 34.6562ZM61.8877 32.559C60.3824 32.065 58.369 31.5286 55.8596 30.949L55.4095 32.8977C57.8932 33.4714 59.8407 33.9922 61.2641 34.4593L61.8877 32.559ZM55.8658 30.9505C52.047 30.0426 48.9456 29.1406 46.5498 28.2472L45.851 30.1212C48.3523 31.0539 51.5403 31.9779 55.4033 32.8962L55.8658 30.9505ZM46.5498 28.2472C44.2616 27.394 42.2995 26.0267 40.6541 24.1316L39.1439 25.4428C41.0033 27.5843 43.2422 29.1484 45.851 30.1212L46.5498 28.2472ZM40.6541 24.1316C39.0972 22.3384 38.2704 19.9012 38.2704 16.714H36.2704C36.2704 20.2544 37.196 23.1993 39.1439 25.4428L40.6541 24.1316ZM38.2704 16.714C38.2704 13.9745 39.0072 11.5133 40.4793 9.3032L38.8147 8.19451C37.118 10.7418 36.2704 13.5907 36.2704 16.714H38.2704ZM40.4793 9.3032C41.936 7.11602 44.157 5.34064 47.2126 4.00689L46.4125 2.17389C43.0827 3.62734 40.5266 5.62423 38.8147 8.19451L40.4793 9.3032ZM47.2126 4.00689C50.2455 2.68307 54.0015 2 58.5152 2V0C53.8107 0 49.7651 0.710506 46.4125 2.17389L47.2126 4.00689ZM58.5152 2C61.6514 2 64.7145 2.3747 67.7066 3.12341L68.1921 1.18323C65.0387 0.394172 61.8125 0 58.5152 0V2ZM67.7066 3.12341C70.694 3.87095 73.2824 4.93914 75.4848 6.31689L76.5455 4.62133C74.1388 3.11577 71.35 1.97345 68.1921 1.18323L67.7066 3.12341ZM75.0886 5.09283L71.4878 13.959L73.3408 14.7115L76.9416 5.84539L75.0886 5.09283ZM72.9079 13.4655C68.1232 10.7501 63.2978 9.37071 58.4432 9.37071V11.3707C62.9027 11.3707 67.3913 12.6344 71.9207 15.2049L72.9079 13.4655ZM58.4432 9.37071C55.1081 9.37071 52.4525 9.90373 50.6446 11.1287L51.7665 12.7844C53.0793 11.8949 55.2488 11.3707 58.4432 11.3707V9.37071ZM50.6446 11.1287C48.8387 12.3523 47.865 14.0421 47.865 16.1373H49.865C49.865 14.7726 50.4517 13.6752 51.7665 12.7844L50.6446 11.1287ZM47.865 16.1373C47.865 17.1855 48.1412 18.1445 48.7211 18.9725C49.2951 19.7923 50.125 20.4245 51.1424 20.8997L51.9888 19.0877C51.2059 18.7219 50.6854 18.291 50.3593 17.8253C50.0389 17.3678 49.865 16.819 49.865 16.1373H47.865ZM51.1424 20.8997C53.0444 21.7881 55.8793 22.6357 59.5957 23.457L60.0273 21.5041C56.35 20.6915 53.6877 19.8812 51.9888 19.0877L51.1424 20.8997ZM59.5802 23.4534C63.399 24.3612 66.5004 25.2633 68.8962 26.1567L69.595 24.2827C67.0937 23.35 63.9057 22.426 60.0428 21.5077L59.5802 23.4534ZM68.8962 26.1567C71.1905 27.0122 73.1548 28.3597 74.7998 30.2092L76.2942 28.88C74.4344 26.789 72.1978 25.2533 69.595 24.2827L68.8962 26.1567ZM74.7998 30.2092C76.3484 31.9503 77.1756 34.3573 77.1756 37.5458H79.1756C79.1756 34.0065 78.2505 31.0795 76.2942 28.88L74.7998 30.2092ZM77.1756 37.5458C77.1756 40.2303 76.4307 42.6661 74.9347 44.8787L76.5915 45.9989C78.3122 43.4541 79.1756 40.6278 79.1756 37.5458H77.1756ZM74.9347 44.8787C73.4544 47.068 71.2087 48.845 68.1279 50.1797L68.923 52.0148C72.2757 50.5623 74.855 48.5671 76.5915 45.9989L74.9347 44.8787ZM68.1279 50.1797C65.0695 51.5047 61.3001 52.1876 56.7868 52.1876V54.1876C61.4916 54.1876 65.5479 53.477 68.923 52.0148L68.1279 50.1797ZM56.7868 52.1876C52.8936 52.1876 49.1349 51.6597 45.5073 50.6055L44.9492 52.5261C48.7633 53.6344 52.7102 54.1876 56.7868 54.1876V52.1876ZM113.682 49.6448C112.701 50.3702 111.469 50.9345 109.961 51.3175L110.453 53.256C112.162 52.8221 113.643 52.161 114.871 51.2526L113.682 49.6448ZM109.961 51.3175C108.439 51.7042 106.829 51.8995 105.13 51.8995V53.8995C106.984 53.8995 108.759 53.6863 110.453 53.256L109.961 51.3175ZM105.13 51.8995C100.688 51.8995 97.3987 50.7669 95.1185 48.6367L93.7531 50.0982C96.514 52.6774 100.355 53.8995 105.13 53.8995V51.8995ZM95.1185 48.6367C92.86 46.5268 91.655 43.3696 91.655 38.9876H89.655C89.655 43.736 90.9705 47.4986 93.7531 50.0982L95.1185 48.6367ZM91.655 38.9876V23.0574H89.655V38.9876H91.655ZM90.655 22.0574H84.6776V24.0574H90.655V22.0574ZM85.6776 23.0574V14.4075H83.6776V23.0574H85.6776ZM84.6776 15.4075H90.655V13.4075H84.6776V15.4075ZM91.655 14.4075V4.96469H89.655V14.4075H91.655ZM90.655 5.96469H101.889V3.96469H90.655V5.96469ZM100.889 4.96469V14.4075H102.889V4.96469H100.889ZM101.889 15.4075H111.54V13.4075H101.889V15.4075ZM110.54 14.4075V23.0574H112.54V14.4075H110.54ZM111.54 22.0574H101.889V24.0574H111.54V22.0574ZM100.889 23.0574V38.8434H102.889V23.0574H100.889ZM100.889 38.8434C100.889 40.6449 101.355 42.1847 102.423 43.3146L103.877 41.9409C103.264 41.2928 102.889 40.3096 102.889 38.8434H100.889ZM102.423 43.3146C103.498 44.4521 104.978 44.9613 106.715 44.9613V42.9613C105.378 42.9613 104.482 42.5814 103.877 41.9409L102.423 43.3146ZM106.715 44.9613C108.682 44.9613 110.416 44.4247 111.862 43.312L110.642 41.7273C109.59 42.5367 108.3 42.9613 106.715 42.9613V44.9613ZM110.317 42.876L113.342 50.8051L115.211 50.0923L112.186 42.1632L110.317 42.876ZM153.313 18.0021C156.251 20.613 157.803 24.6105 157.803 30.1935H159.803C159.803 24.2433 158.138 19.615 154.642 16.5073L153.313 18.0021ZM157.803 30.1935V52.3228H159.803V30.1935H157.803ZM158.803 51.3228H148.288V53.3228H158.803V51.3228ZM149.288 52.3228V47.4933H147.288V52.3228H149.288ZM147.426 46.9876C145.558 50.1746 142.035 51.8995 136.478 51.8995V53.8995C142.443 53.8995 146.794 52.0202 149.151 47.9989L147.426 46.9876ZM136.478 51.8995C133.612 51.8995 131.181 51.4137 129.155 50.4779L128.317 52.2935C130.66 53.3761 133.39 53.8995 136.478 53.8995V51.8995ZM129.155 50.4779C127.119 49.537 125.606 48.2599 124.57 46.6611L122.892 47.7488C124.16 49.7061 125.985 51.2162 128.317 52.2935L129.155 50.4779ZM124.57 46.6611C123.53 45.0559 123.003 43.229 123.003 41.15H121.003C121.003 43.5883 121.628 45.7979 122.892 47.7488L124.57 46.6611ZM123.003 41.15C123.003 37.8373 124.229 35.3048 126.677 33.4398L125.466 31.8488C122.489 34.1165 121.003 37.2544 121.003 41.15H123.003ZM126.677 33.4398C129.134 31.5685 133.06 30.5448 138.638 30.5448V28.5448C132.886 28.5448 128.434 29.5874 125.466 31.8488L126.677 33.4398ZM138.638 30.5448H147.568V28.5448H138.638V30.5448ZM148.568 29.5448C148.568 26.8797 147.75 24.6927 146 23.1385L144.672 24.6341C145.898 25.723 146.568 27.3082 146.568 29.5448H148.568ZM146 23.1385C144.256 21.5904 141.742 20.904 138.638 20.904V22.904C141.488 22.904 143.439 23.5392 144.672 24.6341L146 23.1385ZM138.638 20.904C136.467 20.904 134.334 21.2455 132.243 21.9263L132.863 23.828C134.757 23.2113 136.681 22.904 138.638 22.904V20.904ZM132.243 21.9263C130.157 22.6054 128.355 23.5337 126.854 24.7249L128.098 26.2914C129.382 25.272 130.963 24.4463 132.863 23.828L132.243 21.9263ZM128.365 25.0515L124.333 17.1945L122.553 18.1078L126.586 25.9648L128.365 25.0515ZM124.019 18.4684C126.022 17.056 128.445 15.9468 131.307 15.155L130.774 13.2274C127.73 14.0695 125.089 15.2669 122.867 16.8339L124.019 18.4684ZM131.307 15.155C134.171 14.3626 137.118 13.9658 140.151 13.9658V11.9658C136.942 11.9658 133.815 12.386 130.774 13.2274L131.307 15.155ZM140.151 13.9658C146.004 13.9658 150.341 15.3599 153.313 18.0021L154.642 16.5073C151.181 13.431 146.3 11.9658 140.151 11.9658V13.9658ZM144.912 44.8555C146.612 43.8405 147.812 42.3409 148.509 40.4079L146.628 39.7292C146.077 41.2561 145.164 42.3755 143.887 43.1385L144.912 44.8555ZM148.568 40.0685V36.104H146.568V40.0685H148.568ZM147.568 35.104H139.863V37.104H147.568V35.104ZM139.863 35.104C137.48 35.104 135.52 35.4894 134.128 36.4035C132.663 37.3657 131.949 38.8338 131.949 40.6452H133.949C133.949 39.4292 134.387 38.6266 135.226 38.0751C136.139 37.4755 137.636 37.104 139.863 37.104V35.104ZM131.949 40.6452C131.949 42.3935 132.655 43.8358 134.044 44.8709L135.239 43.2673C134.371 42.6205 133.949 41.7802 133.949 40.6452H131.949ZM134.044 44.8709C135.402 45.8829 137.186 46.3305 139.286 46.3305V44.3305C137.45 44.3305 136.138 43.9372 135.239 43.2673L134.044 44.8709ZM139.286 46.3305C141.367 46.3305 143.253 45.8469 144.912 44.8555L143.887 43.1385C142.57 43.9252 141.046 44.3305 139.286 44.3305V46.3305ZM189.423 15.329C191.558 14.4291 194.05 13.9658 196.92 13.9658V11.9658C193.836 11.9658 191.071 12.4637 188.646 13.486L189.423 15.329ZM195.92 12.9658V23.3457H197.92V12.9658H195.92ZM196.997 22.3486C195.754 22.2529 194.876 22.2015 194.399 22.2015V24.2015C194.787 24.2015 195.589 24.2462 196.843 24.3427L196.997 22.3486ZM194.399 22.2015C190.99 22.2015 188.191 23.162 186.135 25.1932L187.54 26.6161C189.133 25.0431 191.375 24.2015 194.399 24.2015V22.2015ZM186.135 25.1932C184.054 27.2484 183.101 30.2525 183.101 34.0139H185.101C185.101 30.567 185.972 28.1649 187.54 26.6161L186.135 25.1932ZM183.101 34.0139V52.3228H185.101V34.0139H183.101ZM184.101 51.3228H172.867V53.3228H184.101V51.3228ZM173.867 52.3228V13.5425H171.867V52.3228H173.867ZM172.867 14.5425H183.597V12.5425H172.867V14.5425ZM182.597 13.5425V18.6603H184.597V13.5425H182.597ZM184.409 19.2432C185.638 17.5298 187.299 16.2239 189.423 15.329L188.646 13.486C186.208 14.5132 184.244 16.0425 182.784 18.0775L184.409 19.2432ZM233.29 49.6448C232.309 50.3702 231.078 50.9345 229.57 51.3175L230.062 53.256C231.771 52.8221 233.252 52.161 234.48 51.2526L233.29 49.6448ZM229.57 51.3175C228.047 51.7042 226.438 51.8995 224.739 51.8995V53.8995C226.592 53.8995 228.368 53.6863 230.062 53.256L229.57 51.3175ZM224.739 51.8995C220.296 51.8995 217.007 50.7669 214.727 48.6367L213.362 50.0982C216.123 52.6774 219.963 53.8995 224.739 53.8995V51.8995ZM214.727 48.6367C212.468 46.5268 211.263 43.3696 211.263 38.9876H209.263C209.263 43.736 210.579 47.4986 213.362 50.0982L214.727 48.6367ZM211.263 38.9876V23.0574H209.263V38.9876H211.263ZM210.263 22.0574H204.286V24.0574H210.263V22.0574ZM205.286 23.0574V14.4075H203.286V23.0574H205.286ZM204.286 15.4075H210.263V13.4075H204.286V15.4075ZM211.263 14.4075V4.96469H209.263V14.4075H211.263ZM210.263 5.96469H221.498V3.96469H210.263V5.96469ZM220.498 4.96469V14.4075H222.498V4.96469H220.498ZM221.498 15.4075H231.148V13.4075H221.498V15.4075ZM230.148 14.4075V23.0574H232.148V14.4075H230.148ZM231.148 22.0574H221.498V24.0574H231.148V22.0574ZM220.498 23.0574V38.8434H222.498V23.0574H220.498ZM220.498 38.8434C220.498 40.6449 220.964 42.1847 222.031 43.3146L223.485 41.9409C222.873 41.2928 222.498 40.3096 222.498 38.8434H220.498ZM222.031 43.3146C223.107 44.4521 224.587 44.9613 226.323 44.9613V42.9613C224.987 42.9613 224.09 42.5814 223.485 41.9409L222.031 43.3146ZM226.323 44.9613C228.291 44.9613 230.025 44.4247 231.47 43.312L230.25 41.7273C229.199 42.5367 227.908 42.9613 226.323 42.9613V44.9613ZM229.926 42.876L232.95 50.8051L234.819 50.0923L231.794 42.1632L229.926 42.876ZM305.958 13.1512L288.458 54.3102L290.299 55.0928L307.799 13.9338L305.958 13.1512ZM288.449 54.3321C286.711 58.7057 284.61 61.6536 282.217 63.3243L283.361 64.9644C286.201 62.9828 288.493 59.6356 290.308 55.0709L288.449 54.3321ZM282.217 63.3243C279.793 65.0154 276.844 65.8834 273.319 65.8834V67.8834C277.187 67.8834 280.551 66.9254 283.361 64.9644L282.217 63.3243ZM273.319 65.8834C271.407 65.8834 269.517 65.5876 267.644 64.9932L267.039 66.8995C269.103 67.5545 271.197 67.8834 273.319 67.8834V65.8834ZM267.644 64.9932C265.778 64.4009 264.301 63.5961 263.179 62.6027L261.853 64.1001C263.228 65.3172 264.968 66.2424 267.039 66.8995L267.644 64.9932ZM263.406 63.8079L267.511 55.8067L265.732 54.8938L261.627 62.8949L263.406 63.8079ZM265.957 56.0974C266.915 56.95 268.016 57.6123 269.252 58.0861L269.968 56.2186C268.947 55.8273 268.056 55.2883 267.286 54.6032L265.957 56.0974ZM269.252 58.0861C270.484 58.5582 271.721 58.8011 272.959 58.8011V56.8011C271.988 56.8011 270.993 56.6114 269.968 56.2186L269.252 58.0861ZM272.959 58.8011C274.657 58.8011 276.139 58.3873 277.316 57.4739L276.091 55.8936C275.348 56.47 274.333 56.8011 272.959 56.8011V58.8011ZM277.316 57.4739C278.46 56.5867 279.409 55.182 280.21 53.3774L278.382 52.5657C277.647 54.221 276.867 55.2912 276.091 55.8936L277.316 57.4739ZM280.225 53.3426L280.369 52.9822L278.512 52.24L278.368 52.6004L280.225 53.3426ZM280.359 52.2165L263.579 13.1478L261.742 13.9371L278.521 53.0058L280.359 52.2165ZM262.66 14.5425H274.255V12.5425H262.66V14.5425ZM273.331 13.9245L284.205 40.2345L286.054 39.4706L275.179 13.1605L273.331 13.9245ZM286.053 40.2367L296.999 13.9266L295.153 13.1583L284.206 39.4684L286.053 40.2367ZM296.076 14.5425H306.878V12.5425H296.076V14.5425ZM322.236 49.4557C319.151 47.8315 316.756 45.5897 315.029 42.7243L313.316 43.7566C315.238 46.9461 317.908 49.4377 321.304 51.2254L322.236 49.4557ZM315.029 42.7243C313.307 39.8661 312.436 36.6116 312.436 32.9326H310.436C310.436 36.9425 311.39 40.5598 313.316 43.7566L315.029 42.7243ZM312.436 32.9326C312.436 29.2536 313.307 25.9991 315.029 23.141L313.316 22.1087C311.39 25.3055 310.436 28.9228 310.436 32.9326H312.436ZM315.029 23.141C316.756 20.2756 319.151 18.0338 322.236 16.4096L321.304 14.6399C317.908 16.4276 315.238 18.9192 313.316 22.1087L315.029 23.141ZM322.236 16.4096C325.317 14.7876 328.815 13.9658 332.753 13.9658V11.9658C328.528 11.9658 324.705 12.85 321.304 14.6399L322.236 16.4096ZM332.753 13.9658C336.69 13.9658 340.175 14.7876 343.231 16.4082L344.168 14.6413C340.79 12.8499 336.977 11.9658 332.753 11.9658V13.9658ZM343.231 16.4082C346.292 18.0319 348.676 20.2737 350.404 23.141L352.117 22.1087C350.196 18.921 347.54 16.4296 344.168 14.6413L343.231 16.4082ZM350.404 23.141C352.127 25.9991 352.997 29.2536 352.997 32.9326H354.997C354.997 28.9228 354.044 25.3055 352.117 22.1087L350.404 23.141ZM352.997 32.9326C352.997 36.6116 352.127 39.8661 350.404 42.7243L352.117 43.7566C354.044 40.5598 354.997 36.9425 354.997 32.9326H352.997ZM350.404 42.7243C348.676 45.5916 346.292 47.8334 343.231 49.4571L344.168 51.224C347.54 49.4357 350.196 46.9442 352.117 43.7566L350.404 42.7243ZM343.231 49.4571C340.175 51.0776 336.69 51.8995 332.753 51.8995V53.8995C336.977 53.8995 340.79 53.0153 344.168 51.224L343.231 49.4571ZM332.753 51.8995C328.815 51.8995 325.317 51.0777 322.236 49.4557L321.304 51.2254C324.705 53.0153 328.528 53.8995 332.753 53.8995V51.8995ZM340.571 41.4422C342.633 39.2715 343.619 36.3978 343.619 32.9327H341.619C341.619 36.003 340.756 38.3433 339.121 40.0649L340.571 41.4422ZM343.619 32.9327C343.619 29.4675 342.633 26.5939 340.571 24.4231L339.121 25.8004C340.756 27.522 341.619 29.8623 341.619 32.9327H343.619ZM340.571 24.4231C338.519 22.2624 335.885 21.1924 332.753 21.1924V23.1924C335.382 23.1924 337.476 24.0686 339.121 25.8004L340.571 24.4231ZM332.753 21.1924C329.62 21.1924 326.977 22.2621 324.902 24.4184L326.344 25.805C328.014 24.0688 330.124 23.1924 332.753 23.1924V21.1924ZM324.902 24.4184C322.814 26.5887 321.814 29.464 321.814 32.9327H323.814C323.814 29.8658 324.687 27.5272 326.344 25.805L324.902 24.4184ZM321.814 32.9327C321.814 36.4013 322.814 39.2766 324.902 41.4469L326.344 40.0603C324.687 38.3381 323.814 35.9995 323.814 32.9327H321.814ZM324.902 41.4469C326.977 43.6032 329.62 44.6729 332.753 44.6729V42.6729C330.124 42.6729 328.014 41.7965 326.344 40.0603L324.902 41.4469ZM332.753 44.6729C335.885 44.6729 338.519 43.6029 340.571 41.4422L339.121 40.0649C337.476 41.7967 335.382 42.6729 332.753 42.6729V44.6729ZM403.429 13.5425V52.3228H405.429V13.5425H403.429ZM404.429 51.3228H393.771V53.3228H404.429V51.3228ZM394.771 52.3228V47.7095H392.771V52.3228H394.771ZM393.022 47.0468C391.631 48.6185 389.976 49.8166 388.046 50.6475L388.837 52.4844C391.037 51.5372 392.934 50.1645 394.52 48.3722L393.022 47.0468ZM388.046 50.6475C386.115 51.4791 384.018 51.8995 381.744 51.8995V53.8995C384.271 53.8995 386.639 53.4308 388.837 52.4844L388.046 50.6475ZM381.744 51.8995C376.857 51.8995 373.097 50.4984 370.347 47.7899L368.944 49.2149C372.147 52.3692 376.453 53.8995 381.744 53.8995V51.8995ZM370.347 47.7899C367.625 45.1088 366.18 41.0585 366.18 35.4555H364.18C364.18 41.3858 365.713 46.0333 368.944 49.2149L370.347 47.7899ZM366.18 35.4555V13.5425H364.18V35.4555H366.18ZM365.18 14.5425H376.415V12.5425H365.18V14.5425ZM375.415 13.5425V33.7976H377.415V13.5425H375.415ZM375.415 33.7976C375.415 37.0364 376.09 39.6518 377.611 41.4678C379.161 43.3178 381.443 44.1683 384.265 44.1683V42.1683C381.853 42.1683 380.211 41.4571 379.144 40.1835C378.049 38.876 377.415 36.806 377.415 33.7976H375.415ZM384.265 44.1683C387.194 44.1683 389.633 43.2018 391.478 41.2186L390.014 39.8561C388.595 41.3809 386.713 42.1683 384.265 42.1683V44.1683ZM391.478 41.2186C393.346 39.2116 394.195 36.3178 394.195 32.7164H392.195C392.195 36.035 391.411 38.3551 390.014 39.8561L391.478 41.2186ZM394.195 32.7164V13.5425H392.195V32.7164H394.195ZM393.195 14.5425H404.429V12.5425H393.195V14.5425ZM435.337 15.329C437.472 14.4291 439.965 13.9658 442.834 13.9658V11.9658C439.751 11.9658 436.986 12.4637 434.56 13.486L435.337 15.329ZM441.834 12.9658V23.3457H443.834V12.9658H441.834ZM442.911 22.3486C441.668 22.2529 440.79 22.2015 440.314 22.2015V24.2015C440.701 24.2015 441.504 24.2462 442.758 24.3427L442.911 22.3486ZM440.314 22.2015C436.905 22.2015 434.106 23.162 432.049 25.1932L433.455 26.6161C435.047 25.0431 437.29 24.2015 440.314 24.2015V22.2015ZM432.049 25.1932C429.969 27.2484 429.016 30.2525 429.016 34.0139H431.016C431.016 30.567 431.887 28.1649 433.455 26.6161L432.049 25.1932ZM429.016 34.0139V52.3228H431.016V34.0139H429.016ZM430.016 51.3228H418.781V53.3228H430.016V51.3228ZM419.781 52.3228V13.5425H417.781V52.3228H419.781ZM418.781 14.5425H429.511V12.5425H418.781V14.5425ZM428.511 13.5425V18.6603H430.511V13.5425H428.511ZM430.324 19.2432C431.553 17.5298 433.214 16.2239 435.337 15.329L434.56 13.486C432.123 14.5132 430.159 16.0425 428.699 18.0775L430.324 19.2432ZM17.9238 103.508H27.862V101.508H17.9238V103.508ZM26.862 102.508V111.158H28.862V102.508H26.862ZM27.862 110.158H18.2119V112.158H27.862V110.158ZM17.2119 111.158V140.424H19.2119V111.158H17.2119ZM18.2119 139.424H6.97734V141.424H18.2119V139.424ZM7.97734 140.424V111.158H5.97734V140.424H7.97734ZM6.97734 110.158H1V112.158H6.97734V110.158ZM2 111.158V102.508H0V111.158H2ZM1 103.508H6.97734V101.508H1V103.508ZM7.97734 102.508V100.778H5.97734V102.508H7.97734ZM7.97734 100.778C7.97734 96.5668 9.21613 93.3348 11.6064 90.9643L10.1981 89.5442C7.35511 92.3637 5.97734 96.1476 5.97734 100.778H7.97734ZM11.6064 90.9643C13.9858 88.6046 17.3876 87.3618 21.9567 87.3618V85.3618C17.0196 85.3618 13.0519 86.714 10.1981 89.5442L11.6064 90.9643ZM21.9567 87.3618C23.5653 87.3618 25.0834 87.5343 26.514 87.8752L26.9776 85.9297C25.3835 85.5498 23.7089 85.3618 21.9567 85.3618V87.3618ZM26.514 87.8752C27.9421 88.2155 29.0853 88.6926 29.9716 89.284L31.0817 87.6204C29.9515 86.8662 28.5742 86.3102 26.9776 85.9297L26.514 87.8752ZM29.5865 88.1114L26.6338 96.2567L28.5141 96.9383L31.4668 88.793L29.5865 88.1114ZM28.1498 95.78C26.6697 94.7374 24.952 94.2279 23.0369 94.2279V96.2279C24.5787 96.2279 25.8856 96.6315 26.9981 97.4151L28.1498 95.78ZM23.0369 94.2279C21.1527 94.2279 19.5631 94.7503 18.4623 95.9607C17.3778 97.1532 16.9238 98.8443 16.9238 100.85H18.9238C18.9238 99.1081 19.3219 97.9881 19.9419 97.3064C20.5455 96.6427 21.5124 96.2279 23.0369 96.2279V94.2279ZM16.9238 100.85V102.508H18.9238V100.85H16.9238ZM75.4215 101.643V140.423H77.4215V101.643H75.4215ZM76.4215 139.423H65.7631V141.423H76.4215V139.423ZM66.7631 140.423V135.81H64.7631V140.423H66.7631ZM65.0142 135.147C63.6235 136.719 61.9678 137.917 60.0384 138.748L60.8294 140.585C63.0289 139.638 64.926 138.265 66.512 136.473L65.0142 135.147ZM60.0384 138.748C58.1072 139.58 56.0103 140 53.7364 140V142C56.2636 142 58.6317 141.531 60.8294 140.585L60.0384 138.748ZM53.7364 140C48.8489 140 45.0896 138.599 42.3393 135.891L40.936 137.316C44.1391 140.47 48.4455 142 53.7364 142V140ZM42.3393 135.891C39.6168 133.209 38.1727 129.159 38.1727 123.556H36.1727C36.1727 129.486 37.7052 134.134 40.936 137.316L42.3393 135.891ZM38.1727 123.556V101.643H36.1727V123.556H38.1727ZM37.1727 102.643H48.4072V100.643H37.1727V102.643ZM47.4072 101.643V121.898H49.4072V101.643H47.4072ZM47.4072 121.898C47.4072 125.137 48.0818 127.752 49.603 129.568C51.1527 131.418 53.4351 132.269 56.2569 132.269V130.269C53.8456 130.269 52.2031 129.558 51.1362 128.284C50.0409 126.977 49.4072 124.907 49.4072 121.898H47.4072ZM56.2569 132.269C59.1858 132.269 61.6248 131.302 63.4704 129.319L62.0064 127.957C60.5873 129.481 58.7053 130.269 56.2569 130.269V132.269ZM63.4704 129.319C65.3383 127.312 66.187 124.418 66.187 120.817H64.187C64.187 124.136 63.4033 126.456 62.0064 127.957L63.4704 129.319ZM66.187 120.817V101.643H64.187V120.817H66.187ZM65.187 102.643H76.4215V100.643H65.187V102.643ZM115.168 137.745C114.187 138.471 112.956 139.035 111.448 139.418L111.94 141.357C113.649 140.923 115.13 140.262 116.358 139.353L115.168 137.745ZM111.448 139.418C109.925 139.805 108.316 140 106.617 140V142C108.47 142 110.246 141.787 111.94 141.357L111.448 139.418ZM106.617 140C102.174 140 98.8853 138.868 96.605 136.737L95.2397 138.199C98.0006 140.778 101.841 142 106.617 142V140ZM96.605 136.737C94.3465 134.628 93.1415 131.47 93.1415 127.088H91.1415C91.1415 131.837 92.4571 135.599 95.2397 138.199L96.605 136.737ZM93.1415 127.088V111.158H91.1415V127.088H93.1415ZM92.1415 110.158H86.1642V112.158H92.1415V110.158ZM87.1642 111.158V102.508H85.1642V111.158H87.1642ZM86.1642 103.508H92.1415V101.508H86.1642V103.508ZM93.1415 102.508V93.0654H91.1415V102.508H93.1415ZM92.1415 94.0654H103.376V92.0654H92.1415V94.0654ZM102.376 93.0654V102.508H104.376V93.0654H102.376ZM103.376 103.508H113.026V101.508H103.376V103.508ZM112.026 102.508V111.158H114.026V102.508H112.026ZM113.026 110.158H103.376V112.158H113.026V110.158ZM102.376 111.158V126.944H104.376V111.158H102.376ZM102.376 126.944C102.376 128.746 102.842 130.285 103.91 131.415L105.363 130.042C104.751 129.393 104.376 128.41 104.376 126.944H102.376ZM103.91 131.415C104.985 132.553 106.465 133.062 108.201 133.062V131.062C106.865 131.062 105.968 130.682 105.363 130.042L103.91 131.415ZM108.201 133.062C110.169 133.062 111.903 132.525 113.348 131.413L112.128 129.828C111.077 130.637 109.786 131.062 108.201 131.062V133.062ZM111.804 130.977L114.828 138.906L116.697 138.193L113.672 130.264L111.804 130.977ZM164.043 101.643V140.423H166.043V101.643H164.043ZM165.043 139.423H154.384V141.423H165.043V139.423ZM155.384 140.423V135.81H153.384V140.423H155.384ZM153.635 135.147C152.244 136.719 150.589 137.917 148.659 138.748L149.45 140.585C151.65 139.638 153.547 138.265 155.133 136.473L153.635 135.147ZM148.659 138.748C146.728 139.58 144.631 140 142.357 140V142C144.885 142 147.253 141.531 149.45 140.585L148.659 138.748ZM142.357 140C137.47 140 133.711 138.599 130.96 135.891L129.557 137.316C132.76 140.47 137.067 142 142.357 142V140ZM130.96 135.891C128.238 133.209 126.794 129.159 126.794 123.556H124.794C124.794 129.486 126.326 134.134 129.557 137.316L130.96 135.891ZM126.794 123.556V101.643H124.794V123.556H126.794ZM125.794 102.643H137.028V100.643H125.794V102.643ZM136.028 101.643V121.898H138.028V101.643H136.028ZM136.028 121.898C136.028 125.137 136.703 127.752 138.224 129.568C139.774 131.418 142.056 132.269 144.878 132.269V130.269C142.467 130.269 140.824 129.558 139.757 128.284C138.662 126.977 138.028 124.907 138.028 121.898H136.028ZM144.878 132.269C147.807 132.269 150.246 131.302 152.091 129.319L150.627 127.957C149.208 129.481 147.326 130.269 144.878 130.269V132.269ZM152.091 129.319C153.959 127.312 154.808 124.418 154.808 120.817H152.808C152.808 124.136 152.024 126.456 150.627 127.957L152.091 129.319ZM154.808 120.817V101.643H152.808V120.817H154.808ZM153.808 102.643H165.043V100.643H153.808V102.643ZM195.95 103.43C198.086 102.53 200.578 102.066 203.448 102.066V100.066C200.364 100.066 197.599 100.564 195.174 101.587L195.95 103.43ZM202.448 101.066V111.446H204.448V101.066H202.448ZM203.524 110.449C202.282 110.354 201.404 110.302 200.927 110.302V112.302C201.315 112.302 202.117 112.347 203.371 112.443L203.524 110.449ZM200.927 110.302C197.518 110.302 194.719 111.263 192.663 113.294L194.068 114.717C195.661 113.144 197.903 112.302 200.927 112.302V110.302ZM192.663 113.294C190.582 115.349 189.629 118.353 189.629 122.114H191.629C191.629 118.668 192.5 116.265 194.068 114.717L192.663 113.294ZM189.629 122.114V140.423H191.629V122.114H189.629ZM190.629 139.423H179.394V141.423H190.629V139.423ZM180.394 140.423V101.643H178.394V140.423H180.394ZM179.394 102.643H190.125V100.643H179.394V102.643ZM189.125 101.643V106.761H191.125V101.643H189.125ZM190.937 107.344C192.166 105.63 193.827 104.324 195.95 103.43L195.174 101.587C192.736 102.614 190.772 104.143 189.312 106.178L190.937 107.344ZM251.431 123.205H222.12V125.205H251.431V123.205ZM221.144 124.42C221.724 127.06 223.111 129.175 225.287 130.716L226.443 129.083C224.682 127.837 223.573 126.155 223.097 123.99L221.144 124.42ZM225.287 130.716C227.458 132.252 230.12 132.99 233.211 132.99V130.99C230.444 130.99 228.209 130.334 226.443 129.083L225.287 130.716ZM233.211 132.99C235.326 132.99 237.239 132.675 238.935 132.022L238.217 130.155C236.792 130.704 235.129 130.99 233.211 130.99V132.99ZM238.935 132.022C240.635 131.368 242.198 130.341 243.628 128.961L242.239 127.522C240.979 128.737 239.638 129.608 238.217 130.155L238.935 132.022ZM242.198 128.919L248.175 135.406L249.646 134.051L243.669 127.564L242.198 128.919ZM248.157 134.071C244.746 137.98 239.725 140 232.923 140V142C240.139 142 245.777 139.84 249.664 135.386L248.157 134.071ZM232.923 140C228.686 140 224.981 139.174 221.781 137.549L220.876 139.333C224.397 141.121 228.422 142 232.923 142V140ZM221.781 137.549C218.576 135.922 216.128 133.681 214.407 130.825L212.694 131.857C214.622 135.056 217.359 137.548 220.876 139.333L221.781 137.549ZM214.407 130.825C212.685 127.967 211.814 124.712 211.814 121.033H209.814C209.814 125.043 210.768 128.66 212.694 131.857L214.407 130.825ZM211.814 121.033C211.814 117.402 212.673 114.156 214.376 111.27L212.653 110.253C210.755 113.47 209.814 117.071 209.814 121.033H211.814ZM214.376 111.27C216.083 108.376 218.422 106.125 221.409 104.504L220.455 102.746C217.153 104.538 214.547 107.044 212.653 110.253L214.376 111.27ZM221.409 104.504C224.395 102.885 227.745 102.066 231.483 102.066V100.066C227.442 100.066 223.759 100.954 220.455 102.746L221.409 104.504ZM231.483 102.066C235.127 102.066 238.396 102.85 241.311 104.4L242.25 102.634C239.02 100.917 235.424 100.066 231.483 100.066V102.066ZM241.311 104.4C244.216 105.945 246.491 108.153 248.151 111.043L249.886 110.047C248.041 106.834 245.491 104.358 242.25 102.634L241.311 104.4ZM248.151 111.043C249.805 113.922 250.647 117.289 250.647 121.177H252.647C252.647 116.992 251.737 113.271 249.886 110.047L248.151 111.043ZM250.647 121.177C250.647 121.175 250.645 121.23 250.636 121.385C250.627 121.525 250.614 121.72 250.596 121.971C250.56 122.473 250.506 123.192 250.434 124.128L252.428 124.281C252.569 122.444 252.647 121.372 252.647 121.177H250.647ZM224.505 110.967C222.566 112.584 221.404 114.786 220.988 117.494L222.965 117.797C223.317 115.508 224.268 113.769 225.786 112.503L224.505 110.967ZM221.976 118.645H241.061V116.645H221.976V118.645ZM242.049 117.491C241.631 114.827 240.468 112.644 238.539 111.008L237.245 112.533C238.773 113.829 239.722 115.562 240.073 117.8L242.049 117.491ZM238.539 111.008C236.611 109.373 234.262 108.572 231.555 108.572V110.572C233.84 110.572 235.716 111.237 237.245 112.533L238.539 111.008ZM231.555 108.572C228.808 108.572 226.436 109.356 224.505 110.967L225.786 112.503C227.311 111.231 229.212 110.572 231.555 110.572V108.572ZM321.817 106.107C324.514 108.74 325.945 112.718 325.945 118.222H327.945C327.945 112.385 326.423 107.809 323.215 104.676L321.817 106.107ZM325.945 118.222V140.423H327.945V118.222H325.945ZM326.945 139.423H315.711V141.423H326.945V139.423ZM316.711 140.423V119.952H314.711V140.423H316.711ZM316.711 119.952C316.711 116.754 316.015 114.176 314.442 112.404L312.946 113.732C314.062 114.988 314.711 116.998 314.711 119.952H316.711ZM314.442 112.404C312.861 110.624 310.612 109.798 307.861 109.798V111.798C310.198 111.798 311.839 112.485 312.946 113.732L314.442 112.404ZM307.861 109.798C304.805 109.798 302.27 110.753 300.369 112.737L301.813 114.12C303.274 112.596 305.252 111.798 307.861 111.798V109.798ZM300.369 112.737C298.447 114.743 297.571 117.641 297.571 121.249H299.571C299.571 117.938 300.375 115.622 301.813 114.12L300.369 112.737ZM297.571 121.249V140.423H299.571V121.249H297.571ZM298.571 139.423H287.336V141.423H298.571V139.423ZM288.336 140.423V101.643H286.336V140.423H288.336ZM287.336 102.643H298.067V100.643H287.336V102.643ZM297.067 101.643V106.184H299.067V101.643H297.067ZM298.806 106.858C300.185 105.343 301.905 104.165 303.985 103.328L303.238 101.472C300.901 102.413 298.925 103.757 297.327 105.511L298.806 106.858ZM303.985 103.328C306.063 102.491 308.359 102.066 310.885 102.066V100.066C308.131 100.066 305.578 100.531 303.238 101.472L303.985 103.328ZM310.885 102.066C315.471 102.066 319.082 103.436 321.817 106.107L323.215 104.676C320.045 101.58 315.902 100.066 310.885 100.066V102.066ZM349.36 137.556C346.275 135.932 343.88 133.69 342.153 130.825L340.44 131.857C342.362 135.047 345.033 137.538 348.429 139.326L349.36 137.556ZM342.153 130.825C340.431 127.967 339.56 124.712 339.56 121.033H337.56C337.56 125.043 338.514 128.66 340.44 131.857L342.153 130.825ZM339.56 121.033C339.56 117.354 340.431 114.1 342.153 111.242L340.44 110.209C338.514 113.406 337.56 117.023 337.56 121.033H339.56ZM342.153 111.242C343.88 108.376 346.275 106.134 349.36 104.51L348.429 102.74C345.033 104.528 342.362 107.02 340.44 110.209L342.153 111.242ZM349.36 104.51C352.442 102.888 355.94 102.066 359.877 102.066V100.066C355.653 100.066 351.829 100.951 348.429 102.74L349.36 104.51ZM359.877 102.066C363.815 102.066 367.299 102.888 370.355 104.509L371.292 102.742C367.914 100.951 364.101 100.066 359.877 100.066V102.066ZM370.355 104.509C373.417 106.132 375.801 108.374 377.529 111.242L379.242 110.209C377.321 107.022 374.664 104.53 371.292 102.742L370.355 104.509ZM377.529 111.242C379.251 114.1 380.122 117.354 380.122 121.033H382.122C382.122 117.023 381.168 113.406 379.242 110.209L377.529 111.242ZM380.122 121.033C380.122 124.712 379.251 127.967 377.529 130.825L379.242 131.857C381.168 128.66 382.122 125.043 382.122 121.033H380.122ZM377.529 130.825C375.801 133.692 373.417 135.934 370.355 137.558L371.292 139.325C374.664 137.536 377.321 135.045 379.242 131.857L377.529 130.825ZM370.355 137.558C367.299 139.178 363.815 140 359.877 140V142C364.101 142 367.914 141.116 371.292 139.325L370.355 137.558ZM359.877 140C355.94 140 352.442 139.178 349.36 137.556L348.429 139.326C351.829 141.116 355.653 142 359.877 142V140ZM367.696 129.543C369.757 127.372 370.743 124.498 370.743 121.033H368.743C368.743 124.104 367.881 126.444 366.246 128.166L367.696 129.543ZM370.743 121.033C370.743 117.568 369.757 114.694 367.696 112.524L366.246 113.901C367.881 115.623 368.743 117.963 368.743 121.033H370.743ZM367.696 112.524C365.644 110.363 363.009 109.293 359.877 109.293V111.293C362.506 111.293 364.601 112.169 366.246 113.901L367.696 112.524ZM359.877 109.293C356.745 109.293 354.101 110.363 352.027 112.519L353.468 113.906C355.138 112.169 357.248 111.293 359.877 111.293V109.293ZM352.027 112.519C349.939 114.689 348.939 117.565 348.939 121.033H350.939C350.939 117.966 351.811 115.628 353.468 113.906L352.027 112.519ZM348.939 121.033C348.939 124.502 349.939 127.377 352.027 129.547L353.468 128.161C351.811 126.439 350.939 124.1 350.939 121.033H348.939ZM352.027 129.547C354.101 131.704 356.745 132.774 359.877 132.774V130.774C357.248 130.774 355.138 129.897 353.468 128.161L352.027 129.547ZM359.877 132.774C363.009 132.774 365.644 131.704 367.696 129.543L366.246 128.166C364.601 129.897 362.506 130.774 359.877 130.774V132.774ZM452.722 101.303L438.679 140.083L440.56 140.764L454.603 101.984L452.722 101.303ZM439.619 139.423H428.817V141.423H439.619V139.423ZM429.757 140.083L421.043 116.008L419.163 116.688L427.877 140.764L429.757 140.083ZM419.166 115.998L410.164 140.073L412.038 140.774L421.04 116.698L419.166 115.998ZM411.101 139.423H400.299V141.423H411.101V139.423ZM401.239 140.084L387.268 101.304L385.387 101.982L399.358 140.762L401.239 140.084ZM386.328 102.643H396.914V100.643H386.328V102.643ZM395.97 101.972L405.116 128.21L407.004 127.552L397.858 101.314L395.97 101.972ZM407 128.222L416.506 101.984L414.626 101.302L405.12 127.54L407 128.222ZM415.566 102.643H425.072V100.643H415.566V102.643ZM424.129 101.975L433.347 128.213L435.234 127.55L426.016 101.312L424.129 101.975ZM435.231 128.219L444.665 101.981L442.783 101.305L433.349 127.543L435.231 128.219ZM443.724 102.643H453.663V100.643H443.724V102.643ZM461.389 90.9658H474.784V88.9658H461.389V90.9658ZM473.786 89.8982L471.554 122.84L473.549 122.975L475.782 90.0334L473.786 89.8982ZM472.551 121.907H463.621V123.907H472.551V121.907ZM464.619 122.84L462.387 89.8982L460.391 90.0334L462.624 122.975L464.619 122.84ZM463.848 138.37C462.722 137.284 462.173 135.994 462.173 134.441H460.173C460.173 136.54 460.944 138.349 462.459 139.81L463.848 138.37ZM462.173 134.441C462.173 132.882 462.713 131.622 463.804 130.59L462.43 129.137C460.929 130.556 460.173 132.347 460.173 134.441H462.173ZM463.804 130.59C464.89 129.564 466.289 129.025 468.086 129.025V127.025C465.851 127.025 463.937 127.713 462.43 129.137L463.804 130.59ZM468.086 129.025C469.883 129.025 471.283 129.564 472.369 130.59L473.743 129.137C472.236 127.713 470.322 127.025 468.086 127.025V129.025ZM472.369 130.59C473.46 131.622 474 132.882 474 134.441H476C476 132.347 475.244 130.556 473.743 129.137L472.369 130.59ZM474 134.441C474 135.994 473.451 137.284 472.325 138.37L473.714 139.81C475.228 138.349 476 136.54 476 134.441H474ZM472.325 138.37C471.206 139.45 469.817 140 468.086 140V142C470.293 142 472.193 141.277 473.714 139.81L472.325 138.37ZM468.086 140C466.356 140 464.967 139.45 463.848 138.37L462.459 139.81C463.98 141.277 465.88 142 468.086 142V140Z" fill="#333333"/>
</svg>
